<?xml version="1.0" encoding="utf-8"?>
<!-- Generator: Adobe Illustrator 24.2.3, SVG Export Plug-In . SVG Version: 6.00 Build 0)  -->
<svg version="1.1" id="Layer_1" xmlns="http://www.w3.org/2000/svg" xmlns:xlink="http://www.w3.org/1999/xlink" x="0px" y="0px"
	 viewBox="0 0 282 91" style="enable-background:new 0 0 282 91;" xml:space="preserve">
<style type="text/css">
	.st0{fill:#3A3A3A;}
	.st1{fill:url(#SVGID_1_);}
	.st2{fill:url(#SVGID_2_);}
	.st3{fill:url(#SVGID_3_);}
	.st4{fill:url(#SVGID_4_);}
	.st5{fill:url(#SVGID_5_);}
	.st6{fill:url(#SVGID_6_);}
	.st7{fill:url(#SVGID_7_);}
</style>
<g>
	<g>
		<path class="st0" d="M123.9,44c1.7-1.6,2.6-3.7,2.6-6.1c0-2.6-1-4.9-3.1-6.9c-2-1.9-4.5-2.9-7.4-2.9h-15.5v32.6H117
			c2.9,0,5.3-1,7.4-2.9c2-1.9,3.1-4.3,3.1-6.9C127.5,48,126.3,45.7,123.9,44z M108.1,48h8.9c0.8,0,1.5,0.3,2.1,0.8
			c0.6,0.5,0.8,1.2,0.8,2c0,0.8-0.3,1.4-0.8,2c-0.6,0.5-1.2,0.8-2.1,0.8h-8.9V48z M118.1,40c-0.6,0.5-1.2,0.8-2.1,0.8h-7.9v-5.6h7.9
			c0.8,0,1.5,0.3,2.1,0.8c0.6,0.5,0.8,1.2,0.8,2C118.9,38.8,118.6,39.5,118.1,40z"/>
		<rect x="130.7" y="33.8" class="st0" width="7.6" height="26.9"/>
		<path class="st0" d="M134.5,23.1c-1.4,0-2.5,0.5-3.4,1.3c-0.8,0.9-1.3,2-1.3,3.3c0,1.3,0.4,2.4,1.3,3.3c0.9,0.9,2,1.3,3.4,1.3
			c1.4,0,2.5-0.5,3.4-1.4c0.8-0.9,1.2-2,1.2-3.3c0-1.3-0.4-2.4-1.2-3.2C137,23.6,135.8,23.1,134.5,23.1z"/>
		<polygon class="st0" points="164.1,40.4 164.1,33.8 142.3,33.8 142.3,40.9 154.1,40.9 141.3,54.1 141.3,60.7 165.1,60.7 
			165.1,53.7 151.3,53.7 		"/>
		<path class="st0" d="M180.9,53.8c-2,0-3.5-0.6-4.5-1.7c-1-1.2-1.6-2.8-1.6-4.8v-5.4h7.9v-7.2h-7.9v-7h-7.6v19.6
			c0,3.9,1.2,7.2,3.7,9.8c2.5,2.6,5.7,3.9,9.8,3.9c0.2,0,0.6,0,2.6-0.3l0.6-0.1v-7.2l-0.8,0.1C181.8,53.8,181.2,53.8,180.9,53.8z"/>
		<path class="st0" d="M201,33.6c-4.3,0-7.7,1.3-10.2,3.9c-2.5,2.6-3.7,5.9-3.7,9.8v13.4h7.6V47.3c0-4.3,2.1-6.4,6.6-6.4
			c0.1,0,0.4,0,1.8,0.2l0.8,0.1v-7.4l-0.6-0.1C201.6,33.6,201.2,33.6,201,33.6z"/>
		<path class="st0" d="M233.1,56.9c-0.3-1-0.5-1.9-0.6-2.9c-0.1-1-0.2-1.9-0.3-2.5c0-0.6-0.1-1.4-0.1-2.4c0-1,0-1.6,0-1.8
			c-0.2-4.2-1.5-7.5-3.9-10c-2.4-2.5-5.7-3.7-9.7-3.7c-4.2,0-7.6,1.3-10.1,3.9c-2.5,2.6-3.7,5.9-3.7,9.7c0,3.8,1.2,7.1,3.7,9.8
			c2.5,2.7,5.6,4,9.4,4c3.3,0,5.9-1.1,7.9-3.3c0.3,0.9,0.6,1.8,1,2.6l0.2,0.4h7.7l-0.4-1C233.8,58.8,233.4,57.8,233.1,56.9z
			 M218.6,53.8c-2.2,0-3.7-0.6-4.7-1.8c-1-1.2-1.5-2.8-1.5-4.8s0.5-3.6,1.5-4.8c1-1.2,2.5-1.8,4.7-1.8c3.9,0,5.8,2.1,6,6.6
			c0,2.2-0.5,3.9-1.6,5C222,53.3,220.5,53.8,218.6,53.8z"/>
		<path class="st0" d="M249.4,53.8c-2,0-3.5-0.6-4.5-1.7c-1-1.2-1.6-2.8-1.6-4.8v-5.4h7.9v-7.2h-7.9v-7h-7.6v19.6
			c0,3.9,1.2,7.2,3.7,9.8c2.5,2.6,5.7,3.9,9.8,3.9c0.2,0,0.6,0,2.6-0.3l0.6-0.1v-7.2l-0.8,0.1C250.3,53.8,249.7,53.8,249.4,53.8z"/>
		<path class="st0" d="M277.9,37.5c-2.5-2.6-5.8-3.9-10-3.9c-4.2,0-7.5,1.3-10,3.9c-2.5,2.6-3.7,5.9-3.7,9.8c0,3.9,1.2,7.2,3.7,9.8
			c2.5,2.6,5.8,3.9,10,3.9c4.2,0,7.5-1.3,10-3.9c2.5-2.6,3.7-5.9,3.7-9.8C281.6,43.4,280.3,40.1,277.9,37.5z M263.3,42.5
			c1-1.2,2.5-1.8,4.6-1.8c2.1,0,3.6,0.6,4.6,1.8c1,1.2,1.5,2.8,1.5,4.8s-0.5,3.6-1.5,4.8c-1,1.2-2.5,1.8-4.6,1.8
			c-2.1,0-3.6-0.6-4.6-1.8c-1-1.2-1.5-2.8-1.5-4.8C261.7,45.3,262.2,43.7,263.3,42.5z"/>
	</g>
	<g>
		<linearGradient id="SVGID_1_" gradientUnits="userSpaceOnUse" x1="18.7461" y1="15.7931" x2="31.516" y2="15.7931">
			<stop  offset="0" style="stop-color:#E90067"/>
			<stop  offset="2.201836e-02" style="stop-color:#E80065"/>
			<stop  offset="0.6059" style="stop-color:#C80A40"/>
			<stop  offset="0.6067" style="stop-color:#C80A40"/>
			<stop  offset="0.653" style="stop-color:#B7054B"/>
			<stop  offset="0.71" style="stop-color:#AB0252"/>
			<stop  offset="0.7893" style="stop-color:#A40157"/>
			<stop  offset="1" style="stop-color:#A20058"/>
			<stop  offset="1" style="stop-color:#B3044D"/>
			<stop  offset="1" style="stop-color:#BE0845"/>
			<stop  offset="1" style="stop-color:#C50940"/>
			<stop  offset="1" style="stop-color:#C70A3F"/>
			<stop  offset="1" style="stop-color:#D00E3F"/>
			<stop  offset="1" style="stop-color:#DB143E"/>
			<stop  offset="1" style="stop-color:#E2173E"/>
			<stop  offset="1" style="stop-color:#E4183E"/>
			<stop  offset="1" style="stop-color:#DD153E"/>
			<stop  offset="1" style="stop-color:#C90B3F"/>
			<stop  offset="1" style="stop-color:#C70A3F"/>
			<stop  offset="1" style="stop-color:#C90B3F"/>
			<stop  offset="1" style="stop-color:#D10F3F"/>
			<stop  offset="1" style="stop-color:#DF153E"/>
			<stop  offset="1" style="stop-color:#DF153E"/>
			<stop  offset="1" style="stop-color:#E5223E"/>
			<stop  offset="1" style="stop-color:#E92B3E"/>
			<stop  offset="1" style="stop-color:#E8463E"/>
		</linearGradient>
		<path class="st1" d="M25.1,22.2c3.5,0,6.4-2.9,6.4-6.4c0-3.5-2.9-6.4-6.4-6.4c-3.5,0-6.4,2.9-6.4,6.4
			C18.7,19.3,21.6,22.2,25.1,22.2z M21.5,12.7c0.9,0.9,3.7,3.2,8.5,3.2c0,2.6-2.1,4.8-4.8,4.8c-2.6,0-4.8-2.1-4.8-4.8
			C20.3,15.9,20.2,14.1,21.5,12.7z"/>
		<linearGradient id="SVGID_2_" gradientUnits="userSpaceOnUse" x1="14.1729" y1="29.4146" x2="36.0879" y2="29.4146">
			<stop  offset="0" style="stop-color:#E90067"/>
			<stop  offset="2.201836e-02" style="stop-color:#E80065"/>
			<stop  offset="0.6059" style="stop-color:#C80A40"/>
			<stop  offset="0.6067" style="stop-color:#C80A40"/>
			<stop  offset="0.653" style="stop-color:#B7054B"/>
			<stop  offset="0.71" style="stop-color:#AB0252"/>
			<stop  offset="0.7893" style="stop-color:#A40157"/>
			<stop  offset="1" style="stop-color:#A20058"/>
			<stop  offset="1" style="stop-color:#B3044D"/>
			<stop  offset="1" style="stop-color:#BE0845"/>
			<stop  offset="1" style="stop-color:#C50940"/>
			<stop  offset="1" style="stop-color:#C70A3F"/>
			<stop  offset="1" style="stop-color:#D00E3F"/>
			<stop  offset="1" style="stop-color:#DB143E"/>
			<stop  offset="1" style="stop-color:#E2173E"/>
			<stop  offset="1" style="stop-color:#E4183E"/>
			<stop  offset="1" style="stop-color:#DD153E"/>
			<stop  offset="1" style="stop-color:#C90B3F"/>
			<stop  offset="1" style="stop-color:#C70A3F"/>
			<stop  offset="1" style="stop-color:#C90B3F"/>
			<stop  offset="1" style="stop-color:#D10F3F"/>
			<stop  offset="1" style="stop-color:#DF153E"/>
			<stop  offset="1" style="stop-color:#DF153E"/>
			<stop  offset="1" style="stop-color:#E5223E"/>
			<stop  offset="1" style="stop-color:#E92B3E"/>
			<stop  offset="1" style="stop-color:#E8463E"/>
		</linearGradient>
		<path class="st2" d="M32.4,23.4h-3.2c-0.2,0-0.5,0.2-0.6,0.3l-3.2,4.5c-0.1,0.2-0.3,0.2-0.5,0l-3.2-4.5c-0.1-0.2-0.4-0.3-0.6-0.3
			h-3.2c-2,0-3.7,1.6-3.7,3.7v2.8v3.7c0,1,0.8,1.8,1.8,1.8h18.3c1,0,1.8-0.8,1.8-1.8v-3.7v-2.8C36.1,25.1,34.5,23.4,32.4,23.4z"/>
		<linearGradient id="SVGID_3_" gradientUnits="userSpaceOnUse" x1="25.5106" y1="66.2628" x2="35.1414" y2="66.2628">
			<stop  offset="0" style="stop-color:#E90067"/>
			<stop  offset="2.201836e-02" style="stop-color:#E80065"/>
			<stop  offset="0.6059" style="stop-color:#C80A40"/>
			<stop  offset="0.6067" style="stop-color:#C80A40"/>
			<stop  offset="0.653" style="stop-color:#B7054B"/>
			<stop  offset="0.71" style="stop-color:#AB0252"/>
			<stop  offset="0.7893" style="stop-color:#A40157"/>
			<stop  offset="1" style="stop-color:#A20058"/>
			<stop  offset="1" style="stop-color:#B3044D"/>
			<stop  offset="1" style="stop-color:#BE0845"/>
			<stop  offset="1" style="stop-color:#C50940"/>
			<stop  offset="1" style="stop-color:#C70A3F"/>
			<stop  offset="1" style="stop-color:#D00E3F"/>
			<stop  offset="1" style="stop-color:#DB143E"/>
			<stop  offset="1" style="stop-color:#E2173E"/>
			<stop  offset="1" style="stop-color:#E4183E"/>
			<stop  offset="1" style="stop-color:#DD153E"/>
			<stop  offset="1" style="stop-color:#C90B3F"/>
			<stop  offset="1" style="stop-color:#C70A3F"/>
			<stop  offset="1" style="stop-color:#C90B3F"/>
			<stop  offset="1" style="stop-color:#D10F3F"/>
			<stop  offset="1" style="stop-color:#DF153E"/>
			<stop  offset="1" style="stop-color:#DF153E"/>
			<stop  offset="1" style="stop-color:#E5223E"/>
			<stop  offset="1" style="stop-color:#E92B3E"/>
			<stop  offset="1" style="stop-color:#E8463E"/>
		</linearGradient>
		<path class="st3" d="M25.5,66.3c0,2.7,2.2,4.8,4.8,4.8c2.7,0,4.8-2.2,4.8-4.8c0-2.7-2.2-4.8-4.8-4.8
			C27.7,61.4,25.5,63.6,25.5,66.3z M33.9,66.4c0,2-1.6,3.6-3.6,3.6c-2,0-3.6-1.6-3.6-3.6c0,0-0.1-1.4,0.8-2.4
			C28.3,64.7,30.3,66.4,33.9,66.4z"/>
		<linearGradient id="SVGID_4_" gradientUnits="userSpaceOnUse" x1="22.0616" y1="76.5358" x2="38.5894" y2="76.5358">
			<stop  offset="0" style="stop-color:#E90067"/>
			<stop  offset="2.201836e-02" style="stop-color:#E80065"/>
			<stop  offset="0.6059" style="stop-color:#C80A40"/>
			<stop  offset="0.6067" style="stop-color:#C80A40"/>
			<stop  offset="0.653" style="stop-color:#B7054B"/>
			<stop  offset="0.71" style="stop-color:#AB0252"/>
			<stop  offset="0.7893" style="stop-color:#A40157"/>
			<stop  offset="1" style="stop-color:#A20058"/>
			<stop  offset="1" style="stop-color:#B3044D"/>
			<stop  offset="1" style="stop-color:#BE0845"/>
			<stop  offset="1" style="stop-color:#C50940"/>
			<stop  offset="1" style="stop-color:#C70A3F"/>
			<stop  offset="1" style="stop-color:#D00E3F"/>
			<stop  offset="1" style="stop-color:#DB143E"/>
			<stop  offset="1" style="stop-color:#E2173E"/>
			<stop  offset="1" style="stop-color:#E4183E"/>
			<stop  offset="1" style="stop-color:#DD153E"/>
			<stop  offset="1" style="stop-color:#C90B3F"/>
			<stop  offset="1" style="stop-color:#C70A3F"/>
			<stop  offset="1" style="stop-color:#C90B3F"/>
			<stop  offset="1" style="stop-color:#D10F3F"/>
			<stop  offset="1" style="stop-color:#DF153E"/>
			<stop  offset="1" style="stop-color:#DF153E"/>
			<stop  offset="1" style="stop-color:#E5223E"/>
			<stop  offset="1" style="stop-color:#E92B3E"/>
			<stop  offset="1" style="stop-color:#E8463E"/>
		</linearGradient>
		<path class="st4" d="M32.9,72.3l-2.4,3.4c-0.1,0.1-0.3,0.1-0.3,0l-2.4-3.4c-0.1-0.1-0.3-0.3-0.5-0.3h-2.4c-1.5,0-2.8,1.2-2.8,2.8
			v2.1v2.8c0,0.8,0.6,1.4,1.4,1.4h13.8c0.8,0,1.4-0.6,1.4-1.4v-2.8v-2.1c0-1.5-1.2-2.8-2.8-2.8h-2.4C33.2,72,33,72.1,32.9,72.3z"/>
		<linearGradient id="SVGID_5_" gradientUnits="userSpaceOnUse" x1="65.5363" y1="41.2298" x2="75.1671" y2="41.2298">
			<stop  offset="0" style="stop-color:#E90067"/>
			<stop  offset="2.201836e-02" style="stop-color:#E80065"/>
			<stop  offset="0.6059" style="stop-color:#C80A40"/>
			<stop  offset="0.6067" style="stop-color:#C80A40"/>
			<stop  offset="0.653" style="stop-color:#B7054B"/>
			<stop  offset="0.71" style="stop-color:#AB0252"/>
			<stop  offset="0.7893" style="stop-color:#A40157"/>
			<stop  offset="1" style="stop-color:#A20058"/>
			<stop  offset="1" style="stop-color:#B3044D"/>
			<stop  offset="1" style="stop-color:#BE0845"/>
			<stop  offset="1" style="stop-color:#C50940"/>
			<stop  offset="1" style="stop-color:#C70A3F"/>
			<stop  offset="1" style="stop-color:#D00E3F"/>
			<stop  offset="1" style="stop-color:#DB143E"/>
			<stop  offset="1" style="stop-color:#E2173E"/>
			<stop  offset="1" style="stop-color:#E4183E"/>
			<stop  offset="1" style="stop-color:#DD153E"/>
			<stop  offset="1" style="stop-color:#C90B3F"/>
			<stop  offset="1" style="stop-color:#C70A3F"/>
			<stop  offset="1" style="stop-color:#C90B3F"/>
			<stop  offset="1" style="stop-color:#D10F3F"/>
			<stop  offset="1" style="stop-color:#DF153E"/>
			<stop  offset="1" style="stop-color:#DF153E"/>
			<stop  offset="1" style="stop-color:#E5223E"/>
			<stop  offset="1" style="stop-color:#E92B3E"/>
			<stop  offset="1" style="stop-color:#E8463E"/>
		</linearGradient>
		<path class="st5" d="M70.4,46c2.7,0,4.8-2.2,4.8-4.8c0-2.7-2.2-4.8-4.8-4.8c-2.7,0-4.8,2.2-4.8,4.8C65.5,43.9,67.7,46,70.4,46z
			 M67.6,38.9c0.7,0.7,2.8,2.4,6.4,2.4c0,2-1.6,3.6-3.6,3.6c-2,0-3.6-1.6-3.6-3.6C66.7,41.3,66.6,40,67.6,38.9z"/>
		<linearGradient id="SVGID_6_" gradientUnits="userSpaceOnUse" x1="62.0873" y1="51.5029" x2="78.6151" y2="51.5029">
			<stop  offset="0" style="stop-color:#E90067"/>
			<stop  offset="2.201836e-02" style="stop-color:#E80065"/>
			<stop  offset="0.6059" style="stop-color:#C80A40"/>
			<stop  offset="0.6067" style="stop-color:#C80A40"/>
			<stop  offset="0.653" style="stop-color:#B7054B"/>
			<stop  offset="0.71" style="stop-color:#AB0252"/>
			<stop  offset="0.7893" style="stop-color:#A40157"/>
			<stop  offset="1" style="stop-color:#A20058"/>
			<stop  offset="1" style="stop-color:#B3044D"/>
			<stop  offset="1" style="stop-color:#BE0845"/>
			<stop  offset="1" style="stop-color:#C50940"/>
			<stop  offset="1" style="stop-color:#C70A3F"/>
			<stop  offset="1" style="stop-color:#D00E3F"/>
			<stop  offset="1" style="stop-color:#DB143E"/>
			<stop  offset="1" style="stop-color:#E2173E"/>
			<stop  offset="1" style="stop-color:#E4183E"/>
			<stop  offset="1" style="stop-color:#DD153E"/>
			<stop  offset="1" style="stop-color:#C90B3F"/>
			<stop  offset="1" style="stop-color:#C70A3F"/>
			<stop  offset="1" style="stop-color:#C90B3F"/>
			<stop  offset="1" style="stop-color:#D10F3F"/>
			<stop  offset="1" style="stop-color:#DF153E"/>
			<stop  offset="1" style="stop-color:#DF153E"/>
			<stop  offset="1" style="stop-color:#E5223E"/>
			<stop  offset="1" style="stop-color:#E92B3E"/>
			<stop  offset="1" style="stop-color:#E8463E"/>
		</linearGradient>
		<path class="st6" d="M75.9,47h-2.4c-0.2,0-0.4,0.1-0.5,0.3l-2.4,3.4c-0.1,0.1-0.3,0.1-0.3,0l-2.4-3.4c-0.1-0.1-0.3-0.3-0.5-0.3
			h-2.4c-1.5,0-2.8,1.2-2.8,2.8v2.1v2.8c0,0.8,0.6,1.4,1.4,1.4h13.8c0.8,0,1.4-0.6,1.4-1.4v-2.8v-2.1C78.6,48.2,77.4,47,75.9,47z"/>
		<linearGradient id="SVGID_7_" gradientUnits="userSpaceOnUse" x1="0.4213" y1="45.5" x2="90.6882" y2="45.5">
			<stop  offset="0" style="stop-color:#E90067"/>
			<stop  offset="2.201836e-02" style="stop-color:#E80065"/>
			<stop  offset="0.6059" style="stop-color:#C80A40"/>
			<stop  offset="0.6067" style="stop-color:#C80A40"/>
			<stop  offset="0.653" style="stop-color:#B7054B"/>
			<stop  offset="0.71" style="stop-color:#AB0252"/>
			<stop  offset="0.7893" style="stop-color:#A40157"/>
			<stop  offset="1" style="stop-color:#A20058"/>
			<stop  offset="1" style="stop-color:#B3044D"/>
			<stop  offset="1" style="stop-color:#BE0845"/>
			<stop  offset="1" style="stop-color:#C50940"/>
			<stop  offset="1" style="stop-color:#C70A3F"/>
			<stop  offset="1" style="stop-color:#D00E3F"/>
			<stop  offset="1" style="stop-color:#DB143E"/>
			<stop  offset="1" style="stop-color:#E2173E"/>
			<stop  offset="1" style="stop-color:#E4183E"/>
			<stop  offset="1" style="stop-color:#DD153E"/>
			<stop  offset="1" style="stop-color:#C90B3F"/>
			<stop  offset="1" style="stop-color:#C70A3F"/>
			<stop  offset="1" style="stop-color:#C90B3F"/>
			<stop  offset="1" style="stop-color:#D10F3F"/>
			<stop  offset="1" style="stop-color:#DF153E"/>
			<stop  offset="1" style="stop-color:#DF153E"/>
			<stop  offset="1" style="stop-color:#E5223E"/>
			<stop  offset="1" style="stop-color:#E92B3E"/>
			<stop  offset="1" style="stop-color:#E8463E"/>
		</linearGradient>
		<path class="st7" d="M83,68.5c-0.7,0-1.3,0.1-2,0.3l-2-6.1c5.1-3.2,8.5-8.8,8.5-15.2c0-9.9-8-17.9-17.9-17.9
			c-6.4,0-12,3.4-15.2,8.4l-8.2-5.3c1.1-2.7,1.6-5.6,1.6-8.6c0-2.6-0.4-5.1-1.2-7.4l8.4-2.9c1.4,1.9,3.6,3.1,6.1,3.1
			c4.2,0,7.6-3.4,7.6-7.6c0-4.2-3.4-7.6-7.6-7.6c-4.2,0-7.6,3.4-7.6,7.6c0,0.6,0.1,1.1,0.2,1.6l-8.3,2.8C41.6,6,33.5,0.5,24.1,0.5
			C11.1,0.5,0.4,11.1,0.4,24.2c0,13.1,10.6,23.7,23.7,23.7c0.5,0,1,0,1.5-0.1v7.3c-8,1.8-14,8.9-14,17.4c0,9.9,8,17.9,17.9,17.9
			s17.9-8,17.9-17.9c0-9.8-7.9-17.7-17.6-17.9v-7.5c6.3-1.6,11.7-5.7,14.8-11.2l8.2,5.3c-0.7,2-1.2,4.1-1.2,6.3
			c0,9.9,8,17.9,17.9,17.9c2.2,0,4.3-0.4,6.3-1.2l2.1,6.2c-1.6,1.4-2.6,3.4-2.6,5.7c0,4.2,3.4,7.6,7.6,7.6c4.2,0,7.6-3.4,7.6-7.6
			C90.7,71.9,87.3,68.5,83,68.5z M45.1,72.6c0,8.5-6.9,15.5-15.5,15.5s-15.5-6.9-15.5-15.5S21,57.1,29.6,57.1S45.1,64.1,45.1,72.6z
			 M24.1,44.8c-11.3,0-20.5-9.2-20.5-20.5S12.8,3.7,24.1,3.7s20.5,9.2,20.5,20.5S35.5,44.8,24.1,44.8z M54.1,47.6
			c0-8.5,6.9-15.5,15.5-15.5S85.1,39,85.1,47.6s-6.9,15.5-15.5,15.5S54.1,56.1,54.1,47.6z"/>
	</g>
</g>
</svg>
